<svg width="10" height="9" viewBox="0 0 10 9" fill="none" xmlns="http://www.w3.org/2000/svg">
<path d="M4.82364 0.422683C4.88529 0.232957 5.1537 0.232958 5.21535 0.422683L6.08288 3.09268C6.11045 3.17753 6.18952 3.23497 6.27873 3.23497H9.08613C9.28562 3.23497 9.36856 3.49025 9.20717 3.6075L6.93594 5.25765C6.86376 5.31009 6.83356 5.40304 6.86113 5.48789L7.72866 8.15788C7.79031 8.34761 7.57316 8.50538 7.41177 8.38812L5.14054 6.73797C5.06836 6.68553 4.97063 6.68553 4.89845 6.73797L2.62722 8.38812C2.46583 8.50538 2.24868 8.34761 2.31033 8.15788L3.17786 5.48789C3.20543 5.40304 3.17523 5.31009 3.10305 5.25765L0.831817 3.6075C0.670427 3.49025 0.753371 3.23497 0.95286 3.23497H3.76026C3.84947 3.23497 3.92854 3.17753 3.95611 3.09268L4.82364 0.422683Z" fill="#F1CC4A"/>
</svg>
